<svg version="1.1" viewBox="0.0 0.0 471.06299212598424 635.0918635170603" fill="none" stroke="none" stroke-linecap="square" stroke-miterlimit="10" xmlns:xlink="http://www.w3.org/1999/xlink" xmlns="http://www.w3.org/2000/svg"><clipPath id="p.0"><path d="m0 0l471.063 0l0 635.09186l-471.063 0l0 -635.09186z" clip-rule="nonzero"/></clipPath><g clip-path="url(#p.0)"><path fill="#000000" fill-opacity="0.0" d="m0 0l471.063 0l0 635.09186l-471.063 0z" fill-rule="evenodd"/><path fill="#000000" fill-opacity="0.0" d="m25.236221 25.236221l299.67273 0l119.85483 119.85483l0 460.99554l-419.5276 0z" fill-rule="evenodd"/><path stroke="#000000" stroke-width="24.0" stroke-linejoin="round" stroke-linecap="butt" d="m25.236221 25.236221l299.67273 0l119.85483 119.85483l0 460.99554l-419.5276 0z" fill-rule="evenodd"/><path fill="#000000" fill-opacity="0.0" d="m322.2861 143.0l0 -117.76378l122.48819 117.76378z" fill-rule="evenodd"/><path stroke="#000000" stroke-width="24.0" stroke-linejoin="round" stroke-linecap="butt" d="m322.2861 143.0l0 -117.76378l122.48819 117.76378z" fill-rule="evenodd"/><path fill="#000000" fill-opacity="0.0" d="m116.10035 97.34682l0 0c0 -21.8172 17.697945 -39.503536 39.529457 -39.503536l0 0c10.483871 0 20.538345 4.161968 27.951553 11.570316c7.413208 7.4083557 11.577911 17.45623 11.577911 27.93322l0 0c0 21.8172 -17.697937 39.50354 -39.529465 39.50354l0 0c-21.831512 0 -39.529457 -17.68634 -39.529457 -39.50354z" fill-rule="evenodd"/><path stroke="#000000" stroke-width="24.0" stroke-linejoin="round" stroke-linecap="butt" d="m116.10035 97.34682l0 0c0 -21.8172 17.697945 -39.503536 39.529457 -39.503536l0 0c10.483871 0 20.538345 4.161968 27.951553 11.570316c7.413208 7.4083557 11.577911 17.45623 11.577911 27.93322l0 0c0 21.8172 -17.697937 39.50354 -39.529465 39.50354l0 0c-21.831512 0 -39.529457 -17.68634 -39.529457 -39.50354z" fill-rule="evenodd"/><path fill="#000000" fill-opacity="0.0" d="m67.06236 236.29141l0 0c7.510994 -43.42935 44.968613 -75.10266 88.72589 -75.0246c43.757263 0.078063965 81.1033 31.884842 88.46158 75.34071z" fill-rule="evenodd"/><path stroke="#000000" stroke-width="24.0" stroke-linejoin="round" stroke-linecap="butt" d="m67.06236 236.29141l0 0c7.510994 -43.42935 44.968613 -75.10266 88.72589 -75.0246c43.757263 0.078063965 81.1033 31.884842 88.46158 75.34071z" fill-rule="evenodd"/><path fill="#cfe2f3" d="m179.84052 171.36258l0 0c0 6.0036774 -4.8242493 11.529449 -12.583069 14.412827c-7.7588196 2.8833923 -17.21698 2.6653442 -24.669632 -0.5687103c-7.452667 -3.2340546 -11.713364 -8.969269 -11.113129 -14.959106l0 0c-0.600235 5.9898376 3.6604614 11.725052 11.113129 14.959106c7.452652 3.2340546 16.910812 3.4521027 24.669632 0.5687103c7.7588196 -2.883377 12.583069 -8.409149 12.583069 -14.412827z" fill-rule="evenodd"/><path stroke="#000000" stroke-width="24.0" stroke-linejoin="round" stroke-linecap="butt" d="m179.84052 171.36258l0 0c0 6.0036774 -4.8242493 11.529449 -12.583069 14.412827c-7.7588196 2.8833923 -17.21698 2.6653442 -24.669632 -0.5687103c-7.452667 -3.2340546 -11.713364 -8.969269 -11.113129 -14.959106l0 0c-0.600235 5.9898376 3.6604614 11.725052 11.113129 14.959106c7.452652 3.2340546 16.910812 3.4521027 24.669632 0.5687103c7.7588196 -2.883377 12.583069 -8.409149 12.583069 -14.412827z" fill-rule="evenodd"/><path fill="#000000" fill-opacity="0.0" d="m67.29527 299.67453l336.47247 0l0 4.7244263l-336.47247 0z" fill-rule="evenodd"/><path stroke="#000000" stroke-width="24.0" stroke-linejoin="round" stroke-linecap="butt" d="m67.29527 299.67453l336.47247 0l0 4.7244263l-336.47247 0z" fill-rule="evenodd"/><path fill="#000000" fill-opacity="0.0" d="m67.29527 376.65878l336.47247 0l0 4.7244263l-336.47247 0z" fill-rule="evenodd"/><path stroke="#000000" stroke-width="24.0" stroke-linejoin="round" stroke-linecap="butt" d="m67.29527 376.65878l336.47247 0l0 4.7244263l-336.47247 0z" fill-rule="evenodd"/><path fill="#000000" fill-opacity="0.0" d="m67.29527 453.64304l336.47247 0l0 4.7244263l-336.47247 0z" fill-rule="evenodd"/><path stroke="#000000" stroke-width="24.0" stroke-linejoin="round" stroke-linecap="butt" d="m67.29527 453.64304l336.47247 0l0 4.7244263l-336.47247 0z" fill-rule="evenodd"/><path fill="#000000" fill-opacity="0.0" d="m66.76312 530.6273l168.7559 0l0 1.9527588l-168.7559 0z" fill-rule="evenodd"/><path stroke="#000000" stroke-width="24.0" stroke-linejoin="round" stroke-linecap="butt" d="m66.76312 530.6273l168.7559 0l0 1.9527588l-168.7559 0z" fill-rule="evenodd"/></g></svg>